<svg xmlns="http://www.w3.org/2000/svg" class="lsize" width="252.054" height="211.757" viewBox="0 0 271.481 231.269">
  <g id="logo" transform="translate(-280.832 -145.02)">
    <g id="logo-2" data-name="logo" transform="translate(0 -0.243)">
      <g id="Group_1102" data-name="Group 1102" transform="translate(280.832 145.263)">
        <g id="Group_1101" data-name="Group 1101" transform="translate(0 0)">
          <path id="Path_1014" data-name="Path 1014" d="M267.969,448.868s37.125,4.87,45.034,18.26c0,0,29.823-23.127,78.511-21.3s71.815,21.3,71.815,21.3,6.693,4.866,3.651,12.779c0,0,10.348-2.535,11.563-17.091s-22.519-34.64-66.337-61.417c-55.381-42.6-205.1-152.761-205.1-152.761L360.475,420.875S304.482,420.263,267.969,448.868Z" transform="translate(-207.106 -248.638)" fill="#1c293b"></path>
          <path id="Path_1015" data-name="Path 1015" d="M245.07,253.234,262.7,326.875l60.86,45.037Z" transform="translate(-109.328 -236.801)" fill="#0093ee"></path>
        </g>
      </g>
    </g>
  </g>
</svg>